<svg xmlns="http://www.w3.org/2000/svg" enable-background="new 0 0 60 60" viewBox="0 0 60 60" id="websitedevelopment">
  <path fill="#ffbf66" d="M54,19.75H6c-0.3499756,0-0.6900024-0.0699463-1-0.1799927v30.7999878
		C5,52.9300537,7.0800171,55,9.6300049,55h40.7400513C52.9200439,55,55,52.9300537,55,50.3699951V19.5700073
		C54.6900024,19.6800537,54.3500366,19.75,54,19.75z M25.6700439,33.6900024l-5.9800415,2.2300415l5.9800415,2.2299805v1.7999878
		l-7.9899902-3.0999756v-1.8699951l7.9899902-3.1000366V33.6900024z M28.2000122,43.710022h-1.9400024l5.7200317-16.3099976
		h1.9299927L28.2000122,43.710022z M42.3200073,36.8500366l-7.9899902,3.0999756v-1.7999878l5.9799805-2.2299805
		l-5.9799805-2.2300415v-1.8099976l7.9899902,3.1000366V36.8500366z" class="color2b79c2 svgShape"></path>
  <path fill="#393c47" d="M50.3700562,5H9.6300049C7.0800171,5,5,7.0800171,5,9.6400146V16.75c0,0.5599976,0.4500122,1,1,1h48
		c0.5500488,0,1-0.4400024,1-1V9.6400146C55,7.0800171,52.9200439,5,50.3700562,5z M12.4376831,12.3793945h-0.5830078
		c-0.5527344,0-1-0.4477539-1-1s0.4472656-1,1-1h0.5830078c0.5527344,0,1,0.4477539,1,1
		S12.9904175,12.3793945,12.4376831,12.3793945z M17.1876831,12.3793945h-0.5830078c-0.5527344,0-1-0.4477539-1-1s0.4472656-1,1-1
		h0.5830078c0.5527344,0,1,0.4477539,1,1S17.7404175,12.3793945,17.1876831,12.3793945z M21.9376831,12.3793945h-0.5830078
		c-0.5527344,0-1-0.4477539-1-1s0.4472656-1,1-1h0.5830078c0.5527344,0,1,0.4477539,1,1
		S22.4904175,12.3793945,21.9376831,12.3793945z M48.1456909,12.3793945H26.6876831c-0.5527344,0-1-0.4477539-1-1s0.4472656-1,1-1
		h21.4580078c0.5527344,0,1,0.4477539,1,1S48.6984253,12.3793945,48.1456909,12.3793945z" class="color3b4652 svgShape"></path>
</svg>
